<svg width="26" height="26" fill="none" xmlns="http://www.w3.org/2000/svg"><g clip-path="url(#a)"><path d="M18.425 13 2.41.577A2.653 2.653 0 0 0 1.385 2.69v20.62a2.65 2.65 0 0 0 1.026 2.112L18.425 13Z" fill="#9DC6FB"/><path d="m23.272 10.674-3.875-2.237-3.396.424L14.834 13l.593 3.962 3.97.6 3.875-2.236c1.79-1.034 1.79-3.618 0-4.652Z" fill="#FFE07D"/><path d="M19.397 8.437 5.414.364a2.671 2.671 0 0 0-3.003.213L14.834 13l4.563-4.563Z" fill="#DD5790"/><path d="M19.397 17.563 14.834 13 2.411 25.422a2.67 2.67 0 0 0 3.003.214l13.983-8.073Z" fill="#95D6A4"/><path d="M4.412 2.69c0-.18.017-.355.05-.522L2.412.578A2.652 2.652 0 0 0 1.384 2.69v20.62c0 .888.413 1.633 1.026 2.112l2.05-1.59a2.739 2.739 0 0 1-.049-.522V2.69Z" fill="#80B4FB"/><path d="M5.592.466 5.414.364a2.673 2.673 0 0 0-3.003.214L4.415 2.58A2.65 2.65 0 0 1 5.438.578c.05-.04.102-.077.154-.112Z" fill="#DA387D"/><path d="M5.439 25.422a2.65 2.65 0 0 1-1.024-2.003L2.41 25.422a2.67 2.67 0 0 0 3.003.214l.178-.102a2.63 2.63 0 0 1-.153-.112Z" fill="#78C2A4"/></g><defs><clipPath id="a"><path fill="#fff" transform="matrix(1 0 0 -1 0 26)" d="M0 0h26v26H0z"/></clipPath></defs></svg>